<svg width="25" height="33" viewBox="0 0 25 33" fill="none" xmlns="http://www.w3.org/2000/svg">
<g clip-path="url(#clip0_143_263)">
<path d="M11.0286 30.3316C11.8424 31.1373 13.1641 31.1373 13.9779 30.3316L24.3945 20.0191C25.2083 19.2135 25.2083 17.9051 24.3945 17.0994C23.5807 16.2937 22.2591 16.2937 21.4453 17.0994L14.5833 23.8992V4.125C14.5833 2.98418 13.6523 2.0625 12.5 2.0625C11.3477 2.0625 10.4167 2.98418 10.4167 4.125V23.8928L3.55469 17.1059C2.74089 16.3002 1.41927 16.3002 0.605469 17.1059C-0.208333 17.9115 -0.208333 19.2199 0.605469 20.0256L11.0221 30.3381L11.0286 30.3316Z" fill="black"/>
</g>
<defs>
<clipPath id="clip0_143_263">
<rect width="25" height="33" fill="white"/>
</clipPath>
</defs>
</svg>
