<svg width="26" height="20" viewBox="0 0 26 20" fill="none" xmlns="http://www.w3.org/2000/svg">
<g clip-path="url(#clip0_811_222)">
<path d="M2.10234 8.82291C1.46758 9.47396 1.46758 10.5312 2.10234 11.1823L10.2273 19.5156C10.8621 20.1667 11.893 20.1667 12.5277 19.5156C13.1625 18.8646 13.1625 17.8073 12.5277 17.1562L7.17031 11.6667L22.75 11.6667C23.6488 11.6667 24.375 10.9219 24.375 10C24.375 9.07812 23.6488 8.33333 22.75 8.33333L7.17539 8.33333L12.5227 2.84375C13.1574 2.19271 13.1574 1.13542 12.5227 0.484374C11.8879 -0.166667 10.857 -0.166667 10.2223 0.484374L2.09727 8.81771L2.10234 8.82291Z" fill="#0063A1"/>
</g>
<defs>
<clipPath id="clip0_811_222">
<rect width="20" height="26" fill="white" transform="translate(26) rotate(90)"/>
</clipPath>
</defs>
</svg>
