<svg width="53" height="42" viewBox="0 0 53 42" fill="none" xmlns="http://www.w3.org/2000/svg">
<path d="M26.7379 0.863281C19.4103 0.863281 13.5428 4.16278 9.27142 8.08989C5.02723 11.9811 2.1887 16.6435 0.846523 19.8443C0.547253 20.5527 0.547253 21.3417 0.846523 22.05C2.1887 25.2508 5.02723 29.9132 9.27142 33.8044C13.5428 37.7315 19.4103 41.031 26.7379 41.031C34.0655 41.031 39.933 37.7315 44.2044 33.8044C48.4486 29.9042 51.2871 25.2508 52.6384 22.05C52.9376 21.3417 52.9376 20.5527 52.6384 19.8443C51.2871 16.6435 48.4486 11.9811 44.2044 8.08989C39.933 4.16278 34.0655 0.863281 26.7379 0.863281ZM39.797 20.9472C39.797 28.0751 33.9476 33.8582 26.7379 33.8582C19.5282 33.8582 13.6789 28.0751 13.6789 20.9472C13.6789 13.8192 19.5282 8.03609 26.7379 8.03609C33.9476 8.03609 39.797 13.8192 39.797 20.9472ZM26.7379 15.2089C26.7379 18.3739 24.1352 20.9472 20.9339 20.9472C19.891 20.9472 18.9115 20.6782 18.0681 20.194C18.05 20.4451 18.0319 20.6871 18.0319 20.9472C18.0319 25.6991 21.9314 29.5545 26.7379 29.5545C31.5444 29.5545 35.4439 25.6991 35.4439 20.9472C35.4439 16.1952 31.5444 12.3398 26.7379 12.3398C26.484 12.3398 26.2301 12.3487 25.9761 12.3756C26.4568 13.2095 26.7379 14.1778 26.7379 15.2089Z" fill="white"/>
</svg>
