<svg xmlns="http://www.w3.org/2000/svg" width="27" height="27" fill="none"><g clip-path="url(#a)"><path fill="#6E6E73" d="M20.659 7.861a1.37 1.37 0 0 0-1.36-1.36l-9.563-.048c-.747-.004-1.35.6-1.347 1.346a1.37 1.37 0 0 0 1.36 1.36l6.303.03L6.93 18.31a1.35 1.35 0 0 0 .01 1.913 1.35 1.35 0 0 0 1.912.01l9.119-9.12.034 6.297a1.371 1.371 0 0 0 1.36 1.36c.748.004 1.352-.6 1.348-1.347l-.048-9.562h-.006Z"/></g><defs><clipPath id="a"><path fill="#fff" d="M11.754 26.94.222 15.408 15.445.185l11.532 11.533z"/></clipPath></defs></svg>